<?xml version="1.0" encoding="utf-8"?>
<!-- Generator: Adobe Illustrator 19.0.0, SVG Export Plug-In . SVG Version: 6.00 Build 0)  -->
<svg version="1.1" id="Layer_1" xmlns="http://www.w3.org/2000/svg" xmlns:xlink="http://www.w3.org/1999/xlink" x="0px" y="0px"
	 viewBox="0 0 283.5 283.5" style="enable-background:new 0 0 283.5 283.5;" xml:space="preserve">
<style type="text/css">
	.st0{fill:#F6931E;}
	.st1{fill:#BBBBBB;stroke:#231F20;stroke-width:1.2533;stroke-miterlimit:10;}
	.st2{fill:#E5E6E7;}
	.st3{fill:#00ADEE;}
	.st5{fill:url(#Diamond_Harlequin_Color);stroke:#231F20;stroke-miterlimit:10;}
</style>
<path id="XMLID_1_" class="st3" d="M251.6,19.8H31.9c-6.2,0-11.3,5-11.3,11.3v219.6c0,6.2,5,11.3,11.3,11.3h219.6
	c6.2,0,11.3-5,11.3-11.3V31.1C262.8,24.8,257.8,19.8,251.6,19.8z"/>

<path id="XMLID_49_" class="st3" d="M82.9,70.9h18.5c6.6,0,12,5.4,12,12v18.5c0,6.6-5.4,12-12,12H82.9c-6.6,0-12-5.4-12-12V82.9
	C70.9,76.3,76.3,70.9,82.9,70.9z"/>
<path id="XMLID_28_" class="st3" d="M82.9,170.1h18.5c6.6,0,12,5.4,12,12v18.5c0,6.6-5.4,12-12,12H82.9c-6.6,0-12-5.4-12-12v-18.5
	C70.9,175.5,76.3,170.1,82.9,170.1z"/>
<path id="XMLID_29_" class="st3" d="M82.9,119.6h18.5c6.6,0,12,5.4,12,12v18.5c0,6.6-5.4,12-12,12H82.9c-6.6,0-12-5.4-12-12v-18.5
	C70.9,125,76.3,119.6,82.9,119.6z"/>
<path id="XMLID_30_" class="st3" d="M132.5,119.6H151c6.6,0,12,5.4,12,12v18.5c0,6.6-5.4,12-12,12h-18.5c-6.6,0-12-5.4-12-12v-18.5
	C120.5,125,125.9,119.6,132.5,119.6z"/>
<path id="XMLID_31_" class="st3" d="M182.1,119.6h18.5c6.6,0,12,5.4,12,12v18.5c0,6.6-5.4,12-12,12h-18.5c-6.6,0-12-5.4-12-12v-18.5
	C170.1,125,175.5,119.6,182.1,119.6z"/>
<rect x="65" y="65" width="150" height="150" stroke="black" fill="none" stroke-width="5"/>
<image href="perfilRamos.jpeg" x="65" y="65" width="150" height="150" />
<path id="XMLID_1_" class="st5" d="M20.2,31.4V251c0,6.2,5,11.3,11.3,11.3h219.6c6.2,0,11.3-5,11.3-11.3V31.4
	c0-6.2-5-11.3-11.3-11.3H31.4C25.2,20.1,20.2,25.2,20.2,31.4z"/>

</svg>
